<svg xmlns="http://www.w3.org/2000/svg" viewBox="0 0 951.57 950"><defs><style>.cls-1{fill:#e2003d;}</style></defs><g id="Layer_2" data-name="Layer 2"><g id="Layer_1-2" data-name="Layer 1"><g id="Artwork_1" data-name="Artwork 1"><path class="cls-1" d="M375.58,649.92a15.29,15.29,0,0,1,1.29,6H355.56a16.11,16.11,0,0,1,1.29-6,10.48,10.48,0,0,1,18.73,0M782.72,492.75c1.12-3.51,2.13-7.13,3-10.94,1.28-5.39,2.37-11,3.42-16.93.53-3,1-5.91,1.47-8.76.59-3.4,1.12-6.75,1.58-10a146.57,146.57,0,0,0,1.47-17,60.51,60.51,0,0,0-1.17-14.46,31.5,31.5,0,0,0-4.71-11.59,24.52,24.52,0,0,0-10.21-8.35,27.37,27.37,0,0,0-6.85-2.13,43.86,43.86,0,0,0-8-.74,45.86,45.86,0,0,0-8.19.74,38.29,38.29,0,0,0-7.35,2.09,46.26,46.26,0,0,0-6.72,3.53,50.18,50.18,0,0,0-6.24,4.92,52.07,52.07,0,0,0-9.6,11.63,81.55,81.55,0,0,0-7,14.63,158.13,158.13,0,0,0-5.15,17.16c-1.46,6.08-2.8,12.53-4.11,19.35s-2.52,13.2-3.4,19.39a149.6,149.6,0,0,0-1.63,17.42,67,67,0,0,0,1.07,14.89,33.49,33.49,0,0,0,4.72,11.81,26.38,26.38,0,0,0,4.58,4.92,22.35,22.35,0,0,0,5.6,3.56,29.9,29.9,0,0,0,6.85,2.13,41.72,41.72,0,0,0,8.12.65,49.1,49.1,0,0,0,8.29-.88,41.76,41.76,0,0,0,7.59-2.29,39.72,39.72,0,0,0,6.94-3.75,45.55,45.55,0,0,0,6.35-5.07,52.62,52.62,0,0,0,9.48-11.89,86.52,86.52,0,0,0,6.86-14.89c1.07-2.92,2-6,2.91-9.15m-478-77.62a77.87,77.87,0,0,0-6.91,14.48,150.35,150.35,0,0,0-5.11,17c-1.46,6-2.79,12.43-4.05,19.16s-2.51,13.09-3.39,19.18a151.41,151.41,0,0,0-1.59,17.27,63.62,63.62,0,0,0,1,14.71,33,33,0,0,0,4.69,11.73,27.71,27.71,0,0,0,4.51,4.86,22.87,22.87,0,0,0,5.57,3.54,32.62,32.62,0,0,0,6.77,2.11,42.89,42.89,0,0,0,8,.63,53.76,53.76,0,0,0,8.2-.84,42.13,42.13,0,0,0,7.52-2.3,38.6,38.6,0,0,0,6.84-3.7,48.87,48.87,0,0,0,6.3-5,52,52,0,0,0,9.39-11.81,84,84,0,0,0,6.8-14.73c1.07-2.94,2-6,2.91-9.19.74-2.58,1.45-5.24,2.1-8,1.45-6,2.78-12.41,4-19,.59-3.1,1.13-6.13,1.65-9.07.59-3.4,1.12-6.72,1.56-10a139.67,139.67,0,0,0,1.47-16.83,59.38,59.38,0,0,0-1-14.33,31.47,31.47,0,0,0-4.68-11.47,24.74,24.74,0,0,0-10.12-8.28,32,32,0,0,0-6.76-2.13,47.87,47.87,0,0,0-7.93-.67,44.24,44.24,0,0,0-8.12.7,38.21,38.21,0,0,0-7.27,2.08,42.33,42.33,0,0,0-6.62,3.51c-1.32.87-2.61,1.85-3.9,2.89-.78.63-1.55,1.26-2.32,1.94a52.54,52.54,0,0,0-9.5,11.56M500.52,528.65a28.64,28.64,0,0,0,4.54,4.86,23.89,23.89,0,0,0,5.55,3.54,32,32,0,0,0,6.77,2.1,41.26,41.26,0,0,0,8,.64,48,48,0,0,0,8.2-.86,42.06,42.06,0,0,0,7.52-2.28,38.32,38.32,0,0,0,6.87-3.72,48.1,48.1,0,0,0,6.29-5,52.06,52.06,0,0,0,9.4-11.81,84.44,84.44,0,0,0,6.78-14.75c1.06-2.88,2-5.91,2.88-9,.74-2.63,1.47-5.32,2.11-8.1,1.47-6,2.8-12.41,4-19,.59-3.12,1.14-6.15,1.64-9.12.62-3.4,1.14-6.69,1.59-9.91a146,146,0,0,0,1.46-16.83,60.54,60.54,0,0,0-1-14.41,31.46,31.46,0,0,0-4.71-11.47,24.11,24.11,0,0,0-4.49-4.81,24.76,24.76,0,0,0-5.61-3.47,29.28,29.28,0,0,0-6.78-2.1,41.22,41.22,0,0,0-7.92-.7,44.24,44.24,0,0,0-8.12.7,38.31,38.31,0,0,0-7.28,2.08,45.13,45.13,0,0,0-6.63,3.5,48.4,48.4,0,0,0-6.19,4.87,51.64,51.64,0,0,0-9.51,11.53,80.09,80.09,0,0,0-6.9,14.48,159.64,159.64,0,0,0-5.09,17c-1.45,6-2.78,12.43-4.06,19.16s-2.5,13.07-3.37,19.2a146.56,146.56,0,0,0-1.63,17.24A65.45,65.45,0,0,0,495.86,517a33.29,33.29,0,0,0,4.66,11.7m87.42,116.44a8.55,8.55,0,0,0-6.46,2.48c-2.93,2.93-3.24,7.75-3.24,13.56s.31,10.75,3.24,13.67a8.56,8.56,0,0,0,6.46,2.49,8.84,8.84,0,0,0,6.56-2.49c2.9-2.92,3.23-7.87,3.23-13.67s-.33-10.63-3.23-13.56a8.79,8.79,0,0,0-6.56-2.48M951.57,475c-.43,262.41-213.28,475-475.79,475-166.48,0-313-85.53-398-215a122.77,122.77,0,0,0,14.4-7.81,130,130,0,0,0,15.88-11.94,130.13,130.13,0,0,0,9.48-9.31,117.47,117.47,0,0,0,8.28-10.07,123.81,123.81,0,0,0,13-22.36A169.58,169.58,0,0,0,146,654.13c.73-2.35,1.43-4.77,2.11-7.28.55-2,1-4,1.53-5.93,1-3.94,1.78-7.92,2.61-12.16.41-2.12.83-4.3,1.26-6.58l7.35-38.46,28.48-158.33,30.85.19,15.55-52.65-37.7.13,3.53-25c.13-.65.7-3.81,1.3-7.28.74-4.21,1.57-9,1.74-9.77a139.15,139.15,0,0,1,4.8-16.63,71.45,71.45,0,0,1,6.83-14.14A49.16,49.16,0,0,1,226,289a53.18,53.18,0,0,1,6.5-4.77,42.46,42.46,0,0,1,7-3.44,2.49,2.49,0,0,1,.53-.16l.4-.14a53.2,53.2,0,0,1,9.49-2.86,57.46,57.46,0,0,1,8.27-1c.94-.05,1.89-.07,2.84-.07h.35a50.15,50.15,0,0,1,10.37,1,39.25,39.25,0,0,1,8.57,2.8c.38.19.73.39,1.08.57l.71.43L299.38,226l-.45-.13c-2.62-.8-5.34-1.61-8.3-2.21a114.06,114.06,0,0,0-24.1-2.42h-1.1a130,130,0,0,0-25.65,2.52,127.73,127.73,0,0,0-22.48,6.8,116.51,116.51,0,0,0-19,9.88,119.24,119.24,0,0,0-45.73,52.61c-.59,1.29-1.15,2.62-1.71,4-1.11,2.72-2.18,5.57-3.24,8.6q-.8,2.28-1.56,4.68c-.36,1.07-.71,2.16-1.06,3.28-1,3.35-2,7-3,11.2-1.67,6.72-3.34,16.24-4.8,24.63l-.77,4.39c-.34,1.9-.62,3.73-.9,5.59L132.87,373l-24.69.09L92.7,425.43h31.51c-.08.41-.2,1.05-.35,1.91-.06.28-.12.59-.17.92s-.11.57-.16.88c-.4,2.15-.94,5.06-1.59,8.62-.15.81-.3,1.66-.47,2.53-1,5.27-2.14,11.69-3.48,19-.66,3.63-1.37,7.48-2.11,11.49L114.37,479c-.26,1.4-.52,2.83-.79,4.27q-.8,4.32-1.61,8.79c-.28,1.49-.55,3-.83,4.5-.56,3-1.12,6.09-1.69,9.2-1.71,9.28-3.46,18.84-5.21,28.35-.58,3.17-1.16,6.34-1.74,9.49-2,11-4,21.83-5.87,31.93q-.8,4.34-1.56,8.48c-5.29,29-9.29,50.34-9.29,50.7a139.21,139.21,0,0,1-4.89,17,70.81,70.81,0,0,1-7,14.41c-.14.25-.31.47-.45.7l-.31.42a53,53,0,0,1-22.66,20.4A473.82,473.82,0,0,1,0,474.66C.65,212.12,213.78-.27,476.3,0c175,.19,327.88,94.88,410.36,235.76C867,239.31,852.93,250,843.5,260.45a77,77,0,0,0-8.1,10.09c-1.33,2-2.57,4.11-3.77,6.24l-1.44,2.64c-.11.19-.22.4-.32.6-.65,1.27-1.11,2.22-1.42,2.88-1.09,2.29-2.16,4.62-3.15,7.05a223.57,223.57,0,0,0-7.8,22.94c-2.26,8.12-4.39,16.78-6.48,25.92s-4,17.7-5.53,26c-.6,3.3-1.08,6.51-1.51,9.7a53.25,53.25,0,0,0-8.08-9.7,48.44,48.44,0,0,0-11-7.61,57,57,0,0,0-13.18-4.61,91.82,91.82,0,0,0-46.4,1.61,84,84,0,0,0-14,5.65,73.72,73.72,0,0,0-12.17,7.9,77.15,77.15,0,0,0-16.91,18.81,120.82,120.82,0,0,0-11.64,23.31,229.11,229.11,0,0,0-8,25.76c-2.2,8.75-4.08,17.62-5.86,26.15l-.87,4.17c-1.5,7.28-3,14.73-4.19,22.19a221.46,221.46,0,0,0-2.79,26.45,102.64,102.64,0,0,0,1.89,24.61,53.25,53.25,0,0,0,9,20.71,47.36,47.36,0,0,0,9,9A59.68,59.68,0,0,0,680.59,576a73.66,73.66,0,0,0,14,4.71,85,85,0,0,0,15.65,2,97.56,97.56,0,0,0,16.65-.74,69.64,69.64,0,0,0,29-10.77,90.92,90.92,0,0,0,7.7-5.54c.87-.69,1.74-1.38,2.6-2.13l.09-.08c.83-.67,1.63-1.4,2.44-2.15l1-.85.16-.27c1.65-1.57,3.25-3.21,4.82-5a79.32,79.32,0,0,0,8.86-12.57,53.68,53.68,0,0,0,9.22,18.56,49.34,49.34,0,0,0,9.54,9,62.32,62.32,0,0,0,7.89,4.72c.71.43,1.39.9,2.12,1.29a57,57,0,0,0,13.07,4.74,78.72,78.72,0,0,0,15.66,2c1.58,0,3.14,0,4.69,0l15-48.24c-.35-.09-.72-.09-1-.18a25,25,0,0,1-5.71-1.9,21.4,21.4,0,0,1-4.66-3.11,25,25,0,0,1-3.73-4.22,28.13,28.13,0,0,1-3.74-10.07,49.81,49.81,0,0,1-.61-9.37,5.35,5.35,0,0,0-.11-.55s.12-2.51.19-3.77c.06-.94.19-2.19.36-3.62.32-3.18.7-6.45,1.29-9.87.14-.75.3-1.57.43-2.36.25-1.58.44-2.66.44-2.66s7.46-42.54,7.49-42.54c5.5-32.74,12.39-73.15,13.19-77.41,1.34-7.08,2.73-13.81,4.23-20.14A165.79,165.79,0,0,1,874.15,325a85.17,85.17,0,0,1,7.21-15.23,54.72,54.72,0,0,1,10-12.13,51.19,51.19,0,0,1,6.47-5.09,43,43,0,0,1,7-3.72,41.37,41.37,0,0,1,7.63-2.21h0A474.26,474.26,0,0,1,951.57,475M431.47,634.77V618.19h-14v16.58h-5.91v10.65h5.91v27.76c0,8,4.85,16.05,16.25,16.05h7.63V677.37H436.3c-3.33,0-4.84-1.83-4.84-5.06V645.42h9.89V634.77ZM316.9,653.38c0-6.14-1.19-11.41-5.7-15.9-3.14-3.15-7.65-5-13.23-5a19.29,19.29,0,0,0-14,5.8v-5.14H270.3V689.2h14V655.32c0-7.64,5-10.23,9.38-10.23s9.24,2.59,9.24,10.23v33.91h14Zm73.75,5.91c0-15.39-8.82-26.78-24.44-26.78-14.52,0-24.42,10.34-24.42,28.62,0,22.71,12.71,28.73,25.93,28.73,10.13,0,15.61-3.13,21.32-8.82l-8.51-8.29C377,676.31,374,678,367.84,678c-7.86,0-12.28-5.29-12.28-12.49h35.09Zm8.59-123.79a105.82,105.82,0,0,0,11.13-19.73,156.91,156.91,0,0,0,8-23.29c2.21-8.46,4.11-17.72,5.8-27.9s3-19.23,3.66-27.6a126.6,126.6,0,0,0,0-22.87,74.47,74.47,0,0,0-4.32-19.26,63.86,63.86,0,0,0-9.44-16.69,61,61,0,0,0-10-10.37,69.37,69.37,0,0,0-13.8-8.78,81.1,81.1,0,0,0-17.92-6.08,101.25,101.25,0,0,0-22.29-2.4,113.73,113.73,0,0,0-23.22,2q-2.71.51-5.34,1.14a113.52,113.52,0,0,0-14.86,4.72,109.55,109.55,0,0,0-15.15,7.43l-2,1.2a114.74,114.74,0,0,0-14.05,10.35,109.19,109.19,0,0,0-15.78,16.81q-1.68,2.25-3.24,4.59a113.82,113.82,0,0,0-8.36,14.94,143.48,143.48,0,0,0-5.82,14.81c-.26.75-.5,1.51-.75,2.27-.65,2-1.27,4.11-1.88,6.24-2.43,8.47-4.52,17.78-6.45,28.09s-3.3,19.75-4.06,28.41a137.12,137.12,0,0,0-.33,23.63A76.87,76.87,0,0,0,233,537.09a64.44,64.44,0,0,0,9.59,17.18,64.93,64.93,0,0,0,24.46,19.44,78,78,0,0,0,18.36,6c1.7.34,3.46.65,5.27.91a110.58,110.58,0,0,0,17.63,1.08,120.48,120.48,0,0,0,18.09-1.57q2.86-.46,5.63-1a117.37,117.37,0,0,0,20.47-6.49,111.9,111.9,0,0,0,17.27-9.16,116.84,116.84,0,0,0,14-10.78,108.84,108.84,0,0,0,15.46-17.2M511.37,835.44l33.06-28.09s-1.38-.22-3.08-.63c-.61-.15-1.26-.33-1.91-.52-.38-.12-.76-.25-1.13-.39l-.37-.14c-.24-.09-.47-.19-.69-.29a5.43,5.43,0,0,1-1.83-1.2,1.74,1.74,0,0,1-.24-1.09v-.58a2,2,0,0,1,.08-.66,47.76,47.76,0,0,1,1.48-6l.33-1.09.36-1.11.18-.57c.25-.75.5-1.5.76-2.26.06-.18.13-.37.19-.56l.39-1.12.39-1.1c.26-.73.52-1.44.77-2.12.31-.85.6-1.66.88-2.4.11-.3.22-.58.33-.86.83-2.19,1.4-3.64,1.4-3.64l-1.55.53-.87.29-.33.1-.7.24c-1.58.51-3.56,1.16-5.64,1.8l-1.92.59-3.34,1-1.79.48c-1.29.34-2.45.61-3.38.77a9.7,9.7,0,0,1-1.52.18,1.43,1.43,0,0,1-.58-.07c-.64-.26-1.09-1.64-1.42-3.42-.23-1.24-.39-2.67-.51-4-.26-3-.3-5.65-.3-5.65s-4.42,6.2-9.48,12.5c-1,1.26-2,2.52-3.09,3.74s-2.06,2.39-3,3.47l-.49.53c-.49.53-1,1-1.44,1.49l-.46.45c-2,1.93-3.67,3.22-4.78,3.38a1,1,0,0,1-.84-.18,1.29,1.29,0,0,1-.39-.69,7.9,7.9,0,0,1-.24-2.27v-.61c0-.83.09-1.8.2-2.86A8,8,0,0,1,495,790c.06-.56.13-1.13.21-1.73s.17-1.22.27-1.86l.31-2c.11-.71.24-1.36.36-2.06s.25-1.41.39-2.13c.81-4.33,1.8-9,2.8-13.42.17-.74.33-1.47.5-2.19s.33-1.43.49-2.13c1.06-4.55,2-8.56,2.73-11.28.16-.63.29-1.19.42-1.67.32-1.29.51-2,.51-2s-4.54,4.33-8.72,7.87l-.65.54c-2.6,2.17-4.95,3.91-5.8,3.91-.56,0-1.67-1.85-3-4.63-.67-1.39-1.39-3-2.14-4.75l-.56-1.32c-.18-.45-.37-.9-.56-1.36s-.38-.91-.56-1.38c-.47-1.15-.94-2.32-1.4-3.47-2.63-6.66-4.84-12.75-4.84-12.75s-2.15,6-4.74,12.61l-.27.68c-.81,2.07-1.66,4.17-2.5,6.14-.36.89-.73,1.74-1.09,2.56-.27.61-.54,1.21-.8,1.77a44.77,44.77,0,0,1-2.32,4.52c-.13.21-.26.4-.38.57l-.18.23a2.66,2.66,0,0,1-.32.35,1.14,1.14,0,0,1-.28.21h-.13a.57.57,0,0,1-.26,0c-1.47-.16-5-3.05-8.28-6-1.31-1.17-2.57-2.35-3.64-3.37-1.78-1.7-3-2.94-3-2.94s.85,3.27,2,8.14c.06.29.13.57.21.87.57,2.38,1.21,5.09,1.86,8,.16.72.33,1.45.5,2.18.41,1.83.82,3.71,1.22,5.59.8,3.75,1.55,7.51,2.15,11,1.26,7.19,1.84,12.91.8,14a.82.82,0,0,1-.56.26c-2.51.23-9.41-7.75-15-14.85l-1-1.24c-1.12-1.44-2.17-2.81-3.11-4l-.39-.52-.74-1c-1.76-2.36-2.89-3.94-2.89-3.94s0,.74-.09,1.87v1.42a10.29,10.29,0,0,1-.09,1.07c0,.37-.05.75-.09,1.14-.31,3.28-.88,6.94-1.86,7.63a1.25,1.25,0,0,1-.73.17c-2.21,0-8.17-1.73-13.16-3.36l-.46-.15-1.79-.59-1.24-.42-.76-.26-1.42-.48-.57-.2-1.56-.56s2.09,5.33,4.08,11.1l.38,1.11c.57,1.69,1.12,3.38,1.59,5l.31,1c.24.85.46,1.66.64,2.41s.38,1.7.47,2.38a.74.74,0,0,0,0,.33,3.14,3.14,0,0,1-.12,1.77c-1.53,2.39-9,3.19-9,3.19l33.12,28L438,849.91l-.36,2.29s3.32-1.12,7.84-2.53l.36-.11c1.67-.53,3.49-1.08,5.37-1.63l.33-.1,2.09-.6.75-.21,2.26-.62c2.24-.6,4.41-1.13,6.34-1.54,4.07-.85,7.05-1.12,7.33-.15a3.44,3.44,0,0,1,.1.63v.89c.14,6.68-2.67,29.3-2.67,29.3H483.9s-.13-1.28-.33-3.31c0-.29-.06-.61-.09-.92v-.49c-.08-.84-.17-1.76-.27-2.74v-.59q-.12-1.2-.24-2.49l-.12-1.31c-.69-7.47-1.44-16.18-1.44-18.75a.81.81,0,0,1,0-.22.54.54,0,0,1,.06-.25.53.53,0,0,1,.16-.23,3,3,0,0,1,2-.42h0a48.07,48.07,0,0,1,9.67,1.8l.74.19,2.44.67c1.46.42,2.95.86,4.4,1.3l2.94.92c5.74,1.81,10.32,3.44,10.32,3.44l-1-6.45Zm33.06-202.27H529.68l-9,34.62-11.51-34.62H498.9l-11.41,34.62-9-34.62H463.57l17.26,56.06h11.52L504.08,654l11.7,35.23h11.53Zm67.28,28c0-10.1-1.28-16.48-6.35-21.74-3.45-3.65-9.15-6.88-17.42-6.88s-13.88,3.23-17.33,6.88c-5.06,5.26-6.36,11.64-6.36,21.74s1.3,16.57,6.36,21.86c3.45,3.65,9,6.87,17.33,6.87s14-3.22,17.42-6.87c5.07-5.29,6.35-11.65,6.35-21.86m23.58-196.55c1.72-10.11,3-19.23,3.64-27.6a130.59,130.59,0,0,0,0-22.89,73,73,0,0,0-4.33-19.24,63.7,63.7,0,0,0-9.44-16.69,61,61,0,0,0-10-10.37A67.24,67.24,0,0,0,601.39,359a81.39,81.39,0,0,0-17.91-6.09,101.94,101.94,0,0,0-22.3-2.39,112.53,112.53,0,0,0-23.24,2A110.26,110.26,0,0,0,500.65,367a107.46,107.46,0,0,0-41.5,46.73,162.31,162.31,0,0,0-8.45,23.32c-2.42,8.47-4.53,17.78-6.45,28.08s-3.28,19.76-4.05,28.42a135.49,135.49,0,0,0-.33,23.66,77.07,77.07,0,0,0,4.24,19.9,65.15,65.15,0,0,0,9.59,17.18A66.59,66.59,0,0,0,464,564.92a67.85,67.85,0,0,0,14.14,8.83,81,81,0,0,0,18.38,6,105.27,105.27,0,0,0,22.89,2,114.45,114.45,0,0,0,44.21-9.08,109.31,109.31,0,0,0,17.23-9.15,114.11,114.11,0,0,0,14-10.76,105.94,105.94,0,0,0,26.58-36.93q1.17-2.66,2.25-5.44a173.94,173.94,0,0,0,5.71-17.85c1.67-6.35,3.14-13.15,4.49-20.44.45-2.43.89-4.91,1.33-7.46m41.24,173.19c-3.87-3.86-7.73-5.26-13.23-5.26-6,0-11.4,2.79-14.1,6v-5.36H635.54v56.06h14V655.44c0-7.11,4.73-10.35,9-10.35,3.45,0,5.27,1.19,7.44,3.35Zm72.68,51.46-21.52-33.47,20-22.59H730.78l-18.63,22.91V612.6h-14v76.63h14v-16.7l5.93-6.67,13.77,23.37Z"/></g></g></g></svg>